<mxfile host="app.diagrams.net" agent="Mozilla/5.0 (Windows NT 10.0; Win64; x64) AppleWebKit/537.36 (KHTML, like Gecko) Chrome/129.0.0.0 Safari/537.36" version="24.7.6">
  <diagram name="Page-1" id="sB1CKP84eDXRx4ykbnqj">
    <mxGraphModel dx="1430" dy="719" grid="1" gridSize="10" guides="1" tooltips="1" connect="1" arrows="1" fold="1" page="1" pageScale="1" pageWidth="827" pageHeight="1169" math="0" shadow="0">
      <root>
        <mxCell id="0" />
        <mxCell id="1" parent="0" />
        <mxCell id="elcl3gkH7sDriq-WpopT-10" value="Visité le teste du site" style="whiteSpace=wrap;html=1;fillColor=#d5e8d4;strokeColor=#82b366;" vertex="1" parent="1">
          <mxGeometry x="530" y="115" width="120" height="60" as="geometry" />
        </mxCell>
        <mxCell id="elcl3gkH7sDriq-WpopT-16" value="" style="endArrow=classic;html=1;rounded=0;" edge="1" parent="1" target="elcl3gkH7sDriq-WpopT-28">
          <mxGeometry relative="1" as="geometry">
            <mxPoint x="410" y="40" as="sourcePoint" />
            <mxPoint x="426.2499999999998" y="170" as="targetPoint" />
          </mxGeometry>
        </mxCell>
        <mxCell id="elcl3gkH7sDriq-WpopT-17" value="X" style="edgeLabel;resizable=0;html=1;;align=center;verticalAlign=middle;" connectable="0" vertex="1" parent="elcl3gkH7sDriq-WpopT-16">
          <mxGeometry relative="1" as="geometry" />
        </mxCell>
        <mxCell id="elcl3gkH7sDriq-WpopT-18" value="" style="endArrow=classic;html=1;rounded=0;" edge="1" parent="1" target="elcl3gkH7sDriq-WpopT-10">
          <mxGeometry relative="1" as="geometry">
            <mxPoint x="410" y="40" as="sourcePoint" />
            <mxPoint x="436" y="180" as="targetPoint" />
          </mxGeometry>
        </mxCell>
        <mxCell id="elcl3gkH7sDriq-WpopT-19" value="X" style="edgeLabel;resizable=0;html=1;;align=center;verticalAlign=middle;" connectable="0" vertex="1" parent="elcl3gkH7sDriq-WpopT-18">
          <mxGeometry relative="1" as="geometry" />
        </mxCell>
        <mxCell id="elcl3gkH7sDriq-WpopT-20" value="" style="endArrow=classic;html=1;rounded=0;" edge="1" parent="1" target="elcl3gkH7sDriq-WpopT-27">
          <mxGeometry relative="1" as="geometry">
            <mxPoint x="410" y="40" as="sourcePoint" />
            <mxPoint x="247.5" y="170" as="targetPoint" />
          </mxGeometry>
        </mxCell>
        <mxCell id="elcl3gkH7sDriq-WpopT-21" value="X" style="edgeLabel;resizable=0;html=1;;align=center;verticalAlign=middle;" connectable="0" vertex="1" parent="elcl3gkH7sDriq-WpopT-20">
          <mxGeometry relative="1" as="geometry" />
        </mxCell>
        <mxCell id="elcl3gkH7sDriq-WpopT-27" value="Se connecté" style="text;html=1;align=center;verticalAlign=middle;resizable=0;points=[];autosize=1;strokeColor=none;fillColor=none;" vertex="1" parent="1">
          <mxGeometry x="60" y="130" width="90" height="30" as="geometry" />
        </mxCell>
        <mxCell id="elcl3gkH7sDriq-WpopT-28" value="&lt;span style=&quot;text-wrap: wrap;&quot;&gt;S&#39;inscrire&lt;/span&gt;" style="text;html=1;align=center;verticalAlign=middle;resizable=0;points=[];autosize=1;strokeColor=none;fillColor=none;" vertex="1" parent="1">
          <mxGeometry x="290" y="130" width="70" height="30" as="geometry" />
        </mxCell>
        <mxCell id="elcl3gkH7sDriq-WpopT-31" value="Entrée un mail" style="text;html=1;align=center;verticalAlign=middle;resizable=0;points=[];autosize=1;strokeColor=none;fillColor=none;" vertex="1" parent="1">
          <mxGeometry x="90" y="240" width="100" height="30" as="geometry" />
        </mxCell>
        <mxCell id="elcl3gkH7sDriq-WpopT-33" value="Ajouté les préférence d&#39;un membre" style="whiteSpace=wrap;html=1;fillColor=#dae8fc;strokeColor=#6c8ebf;" vertex="1" parent="1">
          <mxGeometry x="265" y="233" width="120" height="60" as="geometry" />
        </mxCell>
        <mxCell id="elcl3gkH7sDriq-WpopT-34" value="(Ajouté un membre)" style="text;html=1;align=center;verticalAlign=middle;resizable=0;points=[];autosize=1;strokeColor=none;fillColor=none;" vertex="1" parent="1">
          <mxGeometry x="420" y="233" width="130" height="30" as="geometry" />
        </mxCell>
        <mxCell id="elcl3gkH7sDriq-WpopT-35" value="" style="endArrow=none;html=1;rounded=0;curved=0;" edge="1" parent="1" source="elcl3gkH7sDriq-WpopT-31" target="elcl3gkH7sDriq-WpopT-28">
          <mxGeometry width="50" height="50" relative="1" as="geometry">
            <mxPoint x="300" y="270" as="sourcePoint" />
            <mxPoint x="350" y="220" as="targetPoint" />
            <Array as="points">
              <mxPoint x="140" y="200" />
              <mxPoint x="325" y="200" />
            </Array>
          </mxGeometry>
        </mxCell>
        <mxCell id="elcl3gkH7sDriq-WpopT-38" value="X" style="edgeLabel;html=1;align=center;verticalAlign=middle;resizable=0;points=[];" vertex="1" connectable="0" parent="elcl3gkH7sDriq-WpopT-35">
          <mxGeometry x="0.022" y="2" relative="1" as="geometry">
            <mxPoint as="offset" />
          </mxGeometry>
        </mxCell>
        <mxCell id="elcl3gkH7sDriq-WpopT-37" value="" style="endArrow=none;html=1;rounded=0;" edge="1" parent="1" source="elcl3gkH7sDriq-WpopT-33" target="elcl3gkH7sDriq-WpopT-28">
          <mxGeometry width="50" height="50" relative="1" as="geometry">
            <mxPoint x="300" y="270" as="sourcePoint" />
            <mxPoint x="350" y="220" as="targetPoint" />
          </mxGeometry>
        </mxCell>
        <mxCell id="elcl3gkH7sDriq-WpopT-39" value="X" style="edgeLabel;html=1;align=center;verticalAlign=middle;resizable=0;points=[];" vertex="1" connectable="0" parent="elcl3gkH7sDriq-WpopT-37">
          <mxGeometry x="-0.3731" relative="1" as="geometry">
            <mxPoint as="offset" />
          </mxGeometry>
        </mxCell>
        <mxCell id="elcl3gkH7sDriq-WpopT-40" value="" style="endArrow=none;html=1;rounded=0;" edge="1" parent="1" source="elcl3gkH7sDriq-WpopT-34" target="elcl3gkH7sDriq-WpopT-28">
          <mxGeometry width="50" height="50" relative="1" as="geometry">
            <mxPoint x="300" y="270" as="sourcePoint" />
            <mxPoint x="350" y="220" as="targetPoint" />
            <Array as="points">
              <mxPoint x="485" y="200" />
              <mxPoint x="325" y="200" />
            </Array>
          </mxGeometry>
        </mxCell>
        <mxCell id="elcl3gkH7sDriq-WpopT-46" value="X" style="edgeLabel;html=1;align=center;verticalAlign=middle;resizable=0;points=[];" vertex="1" connectable="0" parent="elcl3gkH7sDriq-WpopT-40">
          <mxGeometry x="0.3704" y="1" relative="1" as="geometry">
            <mxPoint as="offset" />
          </mxGeometry>
        </mxCell>
        <mxCell id="elcl3gkH7sDriq-WpopT-41" value="Ajouté les préférence d&#39;un membre" style="whiteSpace=wrap;html=1;fillColor=#dae8fc;strokeColor=#6c8ebf;" vertex="1" parent="1">
          <mxGeometry x="425" y="293" width="120" height="60" as="geometry" />
        </mxCell>
        <mxCell id="elcl3gkH7sDriq-WpopT-42" value="" style="endArrow=none;html=1;rounded=0;entryX=0.49;entryY=0.924;entryDx=0;entryDy=0;entryPerimeter=0;" edge="1" parent="1" source="elcl3gkH7sDriq-WpopT-41" target="elcl3gkH7sDriq-WpopT-34">
          <mxGeometry width="50" height="50" relative="1" as="geometry">
            <mxPoint x="300" y="270" as="sourcePoint" />
            <mxPoint x="350" y="220" as="targetPoint" />
          </mxGeometry>
        </mxCell>
        <mxCell id="elcl3gkH7sDriq-WpopT-43" value="" style="endArrow=none;html=1;rounded=0;curved=1;" edge="1" parent="1">
          <mxGeometry width="50" height="50" relative="1" as="geometry">
            <mxPoint x="410" y="240" as="sourcePoint" />
            <mxPoint x="560" y="240" as="targetPoint" />
            <Array as="points">
              <mxPoint x="480" y="220" />
            </Array>
          </mxGeometry>
        </mxCell>
        <mxCell id="elcl3gkH7sDriq-WpopT-44" value="" style="endArrow=none;html=1;rounded=0;curved=1;" edge="1" parent="1">
          <mxGeometry width="50" height="50" relative="1" as="geometry">
            <mxPoint x="410" y="244" as="sourcePoint" />
            <mxPoint x="560" y="244" as="targetPoint" />
            <Array as="points">
              <mxPoint x="480" y="224" />
            </Array>
          </mxGeometry>
        </mxCell>
        <mxCell id="elcl3gkH7sDriq-WpopT-45" value="Ajouté les préférence d&#39;un membre" style="whiteSpace=wrap;html=1;fillColor=#dae8fc;strokeColor=#6c8ebf;" vertex="1" parent="1">
          <mxGeometry x="70" y="410" width="120" height="60" as="geometry" />
        </mxCell>
        <mxCell id="elcl3gkH7sDriq-WpopT-47" value="" style="endArrow=none;html=1;rounded=0;" edge="1" parent="1" source="elcl3gkH7sDriq-WpopT-50" target="elcl3gkH7sDriq-WpopT-45">
          <mxGeometry width="50" height="50" relative="1" as="geometry">
            <mxPoint x="300" y="550" as="sourcePoint" />
            <mxPoint x="350" y="500" as="targetPoint" />
            <Array as="points">
              <mxPoint x="290" y="500" />
              <mxPoint x="130" y="500" />
            </Array>
          </mxGeometry>
        </mxCell>
        <mxCell id="elcl3gkH7sDriq-WpopT-53" value="X" style="edgeLabel;html=1;align=center;verticalAlign=middle;resizable=0;points=[];" vertex="1" connectable="0" parent="elcl3gkH7sDriq-WpopT-47">
          <mxGeometry x="-0.8032" y="-1" relative="1" as="geometry">
            <mxPoint as="offset" />
          </mxGeometry>
        </mxCell>
        <mxCell id="elcl3gkH7sDriq-WpopT-48" value="Ajouté mode&lt;div&gt;&amp;nbsp;de vie&lt;/div&gt;" style="text;html=1;align=center;verticalAlign=middle;resizable=0;points=[];autosize=1;strokeColor=none;fillColor=none;" vertex="1" parent="1">
          <mxGeometry x="10" y="530" width="90" height="40" as="geometry" />
        </mxCell>
        <mxCell id="elcl3gkH7sDriq-WpopT-49" value="Ajouté préférence&amp;nbsp;&lt;div&gt;alimentaire&lt;span style=&quot;background-color: initial;&quot;&gt;&amp;nbsp;(&amp;amp; allergie)&lt;/span&gt;&lt;/div&gt;" style="text;html=1;align=center;verticalAlign=middle;resizable=0;points=[];autosize=1;strokeColor=none;fillColor=none;" vertex="1" parent="1">
          <mxGeometry x="100" y="530" width="140" height="40" as="geometry" />
        </mxCell>
        <mxCell id="elcl3gkH7sDriq-WpopT-50" value="Ajouté Age&lt;div&gt;,nom, sexe&lt;/div&gt;" style="text;html=1;align=center;verticalAlign=middle;resizable=0;points=[];autosize=1;strokeColor=none;fillColor=none;" vertex="1" parent="1">
          <mxGeometry x="250" y="530" width="80" height="40" as="geometry" />
        </mxCell>
        <mxCell id="elcl3gkH7sDriq-WpopT-51" value="" style="endArrow=none;html=1;rounded=0;exitX=0.557;exitY=0.076;exitDx=0;exitDy=0;exitPerimeter=0;" edge="1" parent="1" source="elcl3gkH7sDriq-WpopT-48" target="elcl3gkH7sDriq-WpopT-45">
          <mxGeometry width="50" height="50" relative="1" as="geometry">
            <mxPoint x="300" y="540" as="sourcePoint" />
            <mxPoint x="140" y="480" as="targetPoint" />
            <Array as="points">
              <mxPoint x="60" y="500" />
              <mxPoint x="130" y="500" />
            </Array>
          </mxGeometry>
        </mxCell>
        <mxCell id="elcl3gkH7sDriq-WpopT-52" value="X" style="edgeLabel;html=1;align=center;verticalAlign=middle;resizable=0;points=[];" vertex="1" connectable="0" parent="elcl3gkH7sDriq-WpopT-51">
          <mxGeometry x="-0.6111" y="1" relative="1" as="geometry">
            <mxPoint as="offset" />
          </mxGeometry>
        </mxCell>
        <mxCell id="elcl3gkH7sDriq-WpopT-54" value="" style="endArrow=none;html=1;rounded=0;entryX=0.5;entryY=1;entryDx=0;entryDy=0;" edge="1" parent="1" source="elcl3gkH7sDriq-WpopT-49" target="elcl3gkH7sDriq-WpopT-45">
          <mxGeometry width="50" height="50" relative="1" as="geometry">
            <mxPoint x="300" y="550" as="sourcePoint" />
            <mxPoint x="350" y="500" as="targetPoint" />
            <Array as="points">
              <mxPoint x="170" y="500" />
              <mxPoint x="130" y="500" />
            </Array>
          </mxGeometry>
        </mxCell>
        <mxCell id="elcl3gkH7sDriq-WpopT-55" value="X" style="edgeLabel;html=1;align=center;verticalAlign=middle;resizable=0;points=[];" vertex="1" connectable="0" parent="elcl3gkH7sDriq-WpopT-54">
          <mxGeometry x="-0.8259" y="-2" relative="1" as="geometry">
            <mxPoint as="offset" />
          </mxGeometry>
        </mxCell>
        <mxCell id="elcl3gkH7sDriq-WpopT-57" value="Visité le&amp;nbsp;&lt;div&gt;reste du site&lt;/div&gt;" style="whiteSpace=wrap;html=1;fillColor=#d5e8d4;strokeColor=#82b366;" vertex="1" parent="1">
          <mxGeometry x="290" y="630" width="120" height="60" as="geometry" />
        </mxCell>
        <mxCell id="elcl3gkH7sDriq-WpopT-58" value="Voir les menus" style="text;html=1;align=center;verticalAlign=middle;resizable=0;points=[];autosize=1;strokeColor=none;fillColor=none;" vertex="1" parent="1">
          <mxGeometry x="150" y="738" width="100" height="30" as="geometry" />
        </mxCell>
        <mxCell id="elcl3gkH7sDriq-WpopT-59" value="Voir les actualité" style="text;html=1;align=center;verticalAlign=middle;resizable=0;points=[];autosize=1;strokeColor=none;fillColor=none;" vertex="1" parent="1">
          <mxGeometry x="255" y="738" width="110" height="30" as="geometry" />
        </mxCell>
        <mxCell id="elcl3gkH7sDriq-WpopT-60" value="Mes meilleurs courses" style="text;html=1;align=center;verticalAlign=middle;resizable=0;points=[];autosize=1;strokeColor=none;fillColor=none;" vertex="1" parent="1">
          <mxGeometry x="20" y="737" width="140" height="30" as="geometry" />
        </mxCell>
        <mxCell id="elcl3gkH7sDriq-WpopT-63" value="Meilleurs &lt;br&gt;Mangeurs" style="text;html=1;align=center;verticalAlign=middle;resizable=0;points=[];autosize=1;strokeColor=none;fillColor=none;" vertex="1" parent="1">
          <mxGeometry x="369" y="733" width="80" height="40" as="geometry" />
        </mxCell>
        <mxCell id="elcl3gkH7sDriq-WpopT-64" value="L&#39;Alimentation Positive&lt;div&gt;&amp;nbsp;Et Durable&lt;/div&gt;" style="text;html=1;align=center;verticalAlign=middle;resizable=0;points=[];autosize=1;strokeColor=none;fillColor=none;" vertex="1" parent="1">
          <mxGeometry x="650" y="735" width="140" height="40" as="geometry" />
        </mxCell>
        <mxCell id="elcl3gkH7sDriq-WpopT-65" value="Conseils" style="text;html=1;align=center;verticalAlign=middle;resizable=0;points=[];autosize=1;strokeColor=none;fillColor=none;" vertex="1" parent="1">
          <mxGeometry x="575" y="738" width="70" height="30" as="geometry" />
        </mxCell>
        <mxCell id="elcl3gkH7sDriq-WpopT-66" value="Actualités" style="text;html=1;align=center;verticalAlign=middle;resizable=0;points=[];autosize=1;strokeColor=none;fillColor=none;" vertex="1" parent="1">
          <mxGeometry x="510" y="738" width="80" height="30" as="geometry" />
        </mxCell>
        <mxCell id="elcl3gkH7sDriq-WpopT-67" value="Conseils &lt;br&gt;Scientifique" style="text;html=1;align=center;verticalAlign=middle;resizable=0;points=[];autosize=1;strokeColor=none;fillColor=none;" vertex="1" parent="1">
          <mxGeometry x="435" y="733" width="90" height="40" as="geometry" />
        </mxCell>
        <mxCell id="elcl3gkH7sDriq-WpopT-77" value="" style="endArrow=classic;html=1;rounded=0;" edge="1" parent="1" source="elcl3gkH7sDriq-WpopT-57" target="elcl3gkH7sDriq-WpopT-60">
          <mxGeometry relative="1" as="geometry">
            <mxPoint x="361" y="610" as="sourcePoint" />
            <mxPoint x="100" y="700" as="targetPoint" />
          </mxGeometry>
        </mxCell>
        <mxCell id="elcl3gkH7sDriq-WpopT-78" value="X" style="edgeLabel;resizable=0;html=1;;align=center;verticalAlign=middle;" connectable="0" vertex="1" parent="elcl3gkH7sDriq-WpopT-77">
          <mxGeometry relative="1" as="geometry" />
        </mxCell>
        <mxCell id="elcl3gkH7sDriq-WpopT-79" value="" style="endArrow=classic;html=1;rounded=0;" edge="1" parent="1" source="elcl3gkH7sDriq-WpopT-57" target="elcl3gkH7sDriq-WpopT-58">
          <mxGeometry relative="1" as="geometry">
            <mxPoint x="300" y="691" as="sourcePoint" />
            <mxPoint x="142" y="747" as="targetPoint" />
          </mxGeometry>
        </mxCell>
        <mxCell id="elcl3gkH7sDriq-WpopT-80" value="X" style="edgeLabel;resizable=0;html=1;;align=center;verticalAlign=middle;" connectable="0" vertex="1" parent="elcl3gkH7sDriq-WpopT-79">
          <mxGeometry relative="1" as="geometry" />
        </mxCell>
        <mxCell id="elcl3gkH7sDriq-WpopT-81" value="" style="endArrow=classic;html=1;rounded=0;" edge="1" parent="1" source="elcl3gkH7sDriq-WpopT-57" target="elcl3gkH7sDriq-WpopT-59">
          <mxGeometry relative="1" as="geometry">
            <mxPoint x="310" y="701" as="sourcePoint" />
            <mxPoint x="152" y="757" as="targetPoint" />
          </mxGeometry>
        </mxCell>
        <mxCell id="elcl3gkH7sDriq-WpopT-82" value="X" style="edgeLabel;resizable=0;html=1;;align=center;verticalAlign=middle;" connectable="0" vertex="1" parent="elcl3gkH7sDriq-WpopT-81">
          <mxGeometry relative="1" as="geometry" />
        </mxCell>
        <mxCell id="elcl3gkH7sDriq-WpopT-83" value="" style="endArrow=classic;html=1;rounded=0;" edge="1" parent="1" source="elcl3gkH7sDriq-WpopT-57" target="elcl3gkH7sDriq-WpopT-63">
          <mxGeometry relative="1" as="geometry">
            <mxPoint x="320" y="711" as="sourcePoint" />
            <mxPoint x="162" y="767" as="targetPoint" />
          </mxGeometry>
        </mxCell>
        <mxCell id="elcl3gkH7sDriq-WpopT-84" value="X" style="edgeLabel;resizable=0;html=1;;align=center;verticalAlign=middle;" connectable="0" vertex="1" parent="elcl3gkH7sDriq-WpopT-83">
          <mxGeometry relative="1" as="geometry" />
        </mxCell>
        <mxCell id="elcl3gkH7sDriq-WpopT-85" value="" style="endArrow=classic;html=1;rounded=0;" edge="1" parent="1" source="elcl3gkH7sDriq-WpopT-57" target="elcl3gkH7sDriq-WpopT-67">
          <mxGeometry relative="1" as="geometry">
            <mxPoint x="330" y="721" as="sourcePoint" />
            <mxPoint x="172" y="777" as="targetPoint" />
          </mxGeometry>
        </mxCell>
        <mxCell id="elcl3gkH7sDriq-WpopT-86" value="X" style="edgeLabel;resizable=0;html=1;;align=center;verticalAlign=middle;" connectable="0" vertex="1" parent="elcl3gkH7sDriq-WpopT-85">
          <mxGeometry relative="1" as="geometry" />
        </mxCell>
        <mxCell id="elcl3gkH7sDriq-WpopT-87" value="" style="endArrow=classic;html=1;rounded=0;" edge="1" parent="1" source="elcl3gkH7sDriq-WpopT-57" target="elcl3gkH7sDriq-WpopT-66">
          <mxGeometry relative="1" as="geometry">
            <mxPoint x="402" y="700" as="sourcePoint" />
            <mxPoint x="462" y="743" as="targetPoint" />
          </mxGeometry>
        </mxCell>
        <mxCell id="elcl3gkH7sDriq-WpopT-88" value="X" style="edgeLabel;resizable=0;html=1;;align=center;verticalAlign=middle;" connectable="0" vertex="1" parent="elcl3gkH7sDriq-WpopT-87">
          <mxGeometry relative="1" as="geometry" />
        </mxCell>
        <mxCell id="elcl3gkH7sDriq-WpopT-89" value="" style="endArrow=classic;html=1;rounded=0;" edge="1" parent="1" source="elcl3gkH7sDriq-WpopT-57" target="elcl3gkH7sDriq-WpopT-65">
          <mxGeometry relative="1" as="geometry">
            <mxPoint x="412" y="710" as="sourcePoint" />
            <mxPoint x="472" y="753" as="targetPoint" />
          </mxGeometry>
        </mxCell>
        <mxCell id="elcl3gkH7sDriq-WpopT-90" value="X" style="edgeLabel;resizable=0;html=1;;align=center;verticalAlign=middle;" connectable="0" vertex="1" parent="elcl3gkH7sDriq-WpopT-89">
          <mxGeometry relative="1" as="geometry" />
        </mxCell>
        <mxCell id="elcl3gkH7sDriq-WpopT-91" value="" style="endArrow=classic;html=1;rounded=0;" edge="1" parent="1" source="elcl3gkH7sDriq-WpopT-57" target="elcl3gkH7sDriq-WpopT-64">
          <mxGeometry relative="1" as="geometry">
            <mxPoint x="422" y="720" as="sourcePoint" />
            <mxPoint x="482" y="763" as="targetPoint" />
          </mxGeometry>
        </mxCell>
        <mxCell id="elcl3gkH7sDriq-WpopT-92" value="X" style="edgeLabel;resizable=0;html=1;;align=center;verticalAlign=middle;" connectable="0" vertex="1" parent="elcl3gkH7sDriq-WpopT-91">
          <mxGeometry relative="1" as="geometry" />
        </mxCell>
      </root>
    </mxGraphModel>
  </diagram>
</mxfile>
